<?xml version='1.0' encoding='iso-8859-1'?>
<svg version="1.1" xmlns="http://www.w3.org/2000/svg" viewBox="0 0 137.144 137.144" xmlns:xlink="http://www.w3.org/1999/xlink" enable-background="new 0 0 137.144 137.144">
  <g>
    <g>
      <path d="m68.572,48c3.787,0 6.857-3.07 6.857-6.857 0-3.787-3.07-6.857-6.857-6.857-3.787,0-6.857,3.07-6.857,6.857 0,3.787 3.07,6.857 6.857,6.857zm8.865,50.811c-0.836-1.085-2.008-5.797-2.008-9.667v-34.287l-20.608-.005v2.194c2.373,0.142 3.978,0.756 4.813,1.84 0.834,1.086 2.295,2.817 2.081,9.685v20.572c0,3.869-1.18,8.488-1.883,9.384-1.099,1.369-2.769,2.077-5.011,2.123v2.124h27.561v-2.124c-2.462-0.141-4.11-0.754-4.945-1.839zm32.278-98.811h-82.286c-15.149,0-27.429,12.28-27.429,27.428v82.287c0,15.149 12.28,27.429 27.429,27.429h82.286c15.149,0 27.429-12.28 27.429-27.429v-82.287c0-15.148-12.28-27.428-27.429-27.428zm13.715,102.858c0,11.361-9.21,20.571-20.571,20.571h-68.573c-11.362,0-20.572-9.211-20.572-20.571v-68.572c0-11.361 9.21-20.572 20.572-20.572h68.572c11.361,0 20.571,9.21 20.571,20.572v68.572z"/>
    </g>
  </g>
</svg>
